<svg width="100" height="100" viewBox="0 0 100 100" xmlns="http://www.w3.org/2000/svg">
  <defs>
    <clipPath id="c">
      <circle cx="50" cy="50" r="44" />
    </clipPath>
  </defs>
  <g clip-path="url(#c)">
    <rect x="0"  y="0"  width="38" height="33" fill="#c4a8b0" />
    <rect x="38" y="0"  width="24" height="33" fill="#a8bcd4" />
    <rect x="62" y="0"  width="38" height="33" fill="#a8c4b0" />
    <rect x="0"  y="33" width="38" height="34" fill="#d4c8a0" />
    <rect x="38" y="33" width="24" height="34" fill="#c0b0d0" />
    <rect x="62" y="33" width="38" height="34" fill="#a0c4d0" />
    <rect x="0"  y="67" width="38" height="33" fill="#d0b8a0" />
    <rect x="38" y="67" width="24" height="33" fill="#b0d0b8" />
    <rect x="62" y="67" width="38" height="33" fill="#d0a8a0" />
    <line x1="0" y1="33" x2="100" y2="33" stroke="#222" stroke-width="2" />
    <line x1="0" y1="67" x2="100" y2="67" stroke="#222" stroke-width="2" />
    <path d="M 50 6 Q 23 50 50 94" fill="none" stroke="#222" stroke-width="2" />
    <path d="M 50 6 Q 77 50 50 94" fill="none" stroke="#222" stroke-width="2" />
  </g>
  <circle cx="50" cy="50" r="44" fill="none" stroke="#222" stroke-width="2.5" />
</svg>
